<?xml version="1.0" encoding="utf-8"?>
<!-- Generator: Adobe Illustrator 26.4.1, SVG Export Plug-In . SVG Version: 6.00 Build 0)  -->
<svg version="1.1" id="레이어_1" xmlns="http://www.w3.org/2000/svg" xmlns:xlink="http://www.w3.org/1999/xlink" x="0px"
	 y="0px" viewBox="0 0 1412 75" style="enable-background:new 0 0 1412 75;" xml:space="preserve">
<style type="text/css">
	.st0{fill:#FFFFFF;}
</style>
<path class="st0" d="M1412,49c-1-0.3-2.2-0.5-2.5-1.3c-5.2-3-10.7-3.1-16.5-2.6c-7.9,0.7-15.8,0.2-23.4-2.6c-4.2-1.6-8.2-0.2-12.2,1
	c-4.6,1.4-9.3,2.8-13.6,4.9c-6.6,3.1-13,2.2-19.5,0.5c-0.4-0.1-0.8-0.2-1.2-0.4c-8.3-4.4-17.5-4.2-26.4-5.7
	c-1.4-0.2-2.9-0.3-4.1-0.9c-6.1-2.9-12.6-3.1-19.1-3.1c-5.3,0-9.9-1.3-14.5-3.9c-1.9-1-4.4-1.5-6.6-1.3c-5.3,0.5-10.3,0.7-15.6-0.6
	c-8.8-2.1-17.9-3.2-26.8-4.9c-4.1-0.8-8.2-1.7-12.1-3.1c-11.1-4.1-22.3-7.5-34.2-7.9c-4.9-0.2-9.8-0.5-14.7-0.9
	c-1.5-0.1-3.1-0.4-4.6-0.8c-6-1.8-12-2.6-18.2-1.1c-8.8,2.1-17.6,1.5-26.4,1.2c-4.1-0.2-8.3-0.2-12.4,0.1c-4.3,0.3-8.1-1.1-12.1-2.4
	c-3.1-1-6.4-2-9.6-2.4c-9.5-1.1-19.1-1.9-28.6-2.8c-1-0.1-2.1-0.1-3.2,0c-7.6,0.5-15.2,1-22.8,1.8c-8.7,1-17.4,2.3-26,3.6
	c-7.5,1.1-14.9,3-22.5,3.7c-4.1,0.4-8.4-1-12.6-1.3c-2.4-0.2-4.9-0.3-7.1,0.3c-6.4,1.8-12.8,2.5-19.5,1.5c-3-0.4-6.1,0.4-9.1,0.6
	c-2.5,0.2-5,0.7-7.4,0.2c-9.5-1.9-19.1-2.4-28.6-1.2c-8.6,1.1-17.5,0.9-25.7,4.4c-8.6,3.8-17.9,4.3-27,5.8
	c-4.9,0.8-9.9,1.7-14.8,1.8c-3.2,0-6.5-1.3-9.5,0.8c-0.2,0.2-0.8,0-1.2-0.1c-4.9-2-9.9-1.1-14.8-0.3c-1.9,0.3-3.8,1.2-5.6,1.9
	c-1.2,0.5-2.3,1.2-3.5,1.4c-6,0.8-11.9,1.5-18.1,0.5c-6-1-12.2-1.1-18.3,0.1c-2.5,0.5-5.3,0.2-7.9-0.1c-7.9-1-15.7-2.1-23.5-3.3
	c-2.6-0.4-5.2-1.1-7.7-1.9c-5-1.6-9.9-2.8-15.2-1.7c-2,0.5-4.1,0.2-6.2,0.3c-3.5,0.2-6.9,0.4-10.4,0.5c-3.8,0.1-7.7,0.6-11.4-0.1
	c-8.2-1.5-16.5-1.3-24.7-1.3c-2.8,0.1-5.3-0.8-8-1.5c-10.1-2.8-19.9-6.6-28.9-12.1c-0.7-0.4-1.5-0.6-2.2-0.6
	c-4.5-0.2-8.9-0.3-13.4-0.5c-1.3,0-2.6-0.1-3.9-0.4c-4.3-1-8.5-2.4-12.8-3.1c-2.2-0.3-4.8,0.2-7,1c-3.5,1.3-6.7,1.5-10.1-0.2
	c-4.7-2.3-9.5-3.1-14.8-2.3c-5.4,0.8-10.8,0.3-16-1.7c-4-1.5-8.1-0.9-12.1-0.1c-3.3,0.7-6.3,0.6-9.3-0.8c-4-1.8-8.2-0.4-12.3-0.4
	c-11.2,0-22.5,0.2-33.7,0.2c-1.5,0-3-0.5-4.4-0.9c-4.8-1.4-9.6-1.8-14.6-0.9c-3.6,0.6-7.1,1-10.7-1c-1.8-1-4.6-0.4-6.9-0.3
	c-10.4,0.5-20.8,1.3-31.2,1.7c-4,0.2-8.1-0.3-12.2-0.6c-3.9-0.3-7.6,0.3-11.1,2.1c-1.7,0.9-3.5,1.6-5.3,2.1
	c-4.7,1.3-9.5,2.6-14.3,3.6c-2.6,0.5-5.3,0.4-7.9,0.5c-0.2,0-0.5-0.1-0.7-0.1c-5.5-0.2-10.9-0.4-16.4-0.6c-2.5-0.1-4.8,0.5-6.7,2.1
	c-7.4,6.3-16,7-25,5.2c-6.2-1.3-11.9-0.2-17.8,1.2c-2.1,0.5-4.3,0.8-6.4,1c-2,0.2-4.1-0.3-6,0.3c-9.2,2.8-18.8,2.3-28.2,3.8
	c-6.7,1.1-13.6,0.7-20.4,1c-1.9,0.1-3.8-0.1-5.5,0.4c-8.9,2.7-18.3,1.9-27.4,3.4c-1.5,0.3-3.2,0-4.7-0.4c-8.4-2.3-16.9-3.1-25.5-1.8
	c-5.9,1-11.8,2.8-17,6.1c-1.6,1-3.5,1.4-5.3,2.1c-8.4,3.2-17,5.4-25.9,6.4c-3.8,0.4-7.5,1.7-11.2,2.5c-4,0.9-8,1.7-11.9,2.6
	c-3.6,0.8-7.2,1.9-10.8,2.9c-2.8,0.8-5.6,1.6-8.4,2.4c-3.7,1.1-7.4,2.4-11.2,3.3c-7,1.6-13.8,4.3-21.3,2.9
	c-4.2-0.7-8.5-0.7-12.7-0.9C0.9,55.4,0,56.7,0,59.1C0.1,64.4,0,69.7,0,75h1412C1412,66.3,1412,57.6,1412,49z"/>
</svg>
